<?xml version="1.0" standalone="no"?>
<!DOCTYPE svg PUBLIC "-//W3C//DTD SVG 20010904//EN"
 "http://www.w3.org/TR/2001/REC-SVG-20010904/DTD/svg10.dtd">
<svg version="1.0" xmlns="http://www.w3.org/2000/svg"
 width="1280.000000pt" height="853.000000pt" viewBox="0 0 1280.000000 853.000000"
 preserveAspectRatio="xMidYMid meet">
<metadata>
Created by potrace 1.16, written by Peter Selinger 2001-2019
</metadata>
<g transform="translate(0.000000,853.000000) scale(0.100000,-0.100000)"
fill="#000000" stroke="none">
<path d="M8535 8440 c-44 -46 -193 -146 -280 -186 -144 -69 -359 -135 -720
-224 -185 -45 -420 -120 -529 -169 -176 -80 -359 -202 -492 -328 -262 -250
-411 -563 -439 -925 -4 -49 -11 -88 -14 -88 -4 0 -37 44 -73 98 -128 187 -295
326 -493 409 -211 88 -416 123 -730 123 -357 0 -533 24 -682 91 -35 16 -69 29
-75 29 -16 0 16 -207 54 -355 25 -95 94 -284 137 -375 121 -258 312 -498 511
-640 250 -179 510 -260 831 -260 168 0 287 18 417 63 l103 35 15 -36 c53 -129
57 -252 11 -374 -57 -149 -213 -297 -387 -366 -353 -141 -678 -428 -855 -756
-25 -46 -52 -89 -59 -95 -9 -8 -25 0 -61 30 -86 71 -96 74 -235 74 -99 0 -132
-4 -159 -17 -19 -10 -35 -18 -37 -18 -1 0 -6 15 -9 33 -10 42 -40 101 -81 157
-38 53 -59 125 -50 174 8 43 18 50 91 71 101 28 164 54 228 93 95 57 106 67
127 108 48 94 5 194 -84 194 -21 0 -24 5 -29 66 -6 76 -22 103 -86 149 -42 30
-44 30 -174 29 -149 0 -293 -12 -320 -26 -23 -12 -102 -119 -132 -179 -41 -79
-65 -167 -74 -262 -8 -77 -22 -128 -89 -313 -100 -277 -122 -384 -103 -507 7
-45 24 -114 37 -153 13 -39 24 -90 24 -114 0 -26 8 -56 21 -76 25 -40 86 -91
129 -106 17 -6 62 -41 100 -78 187 -185 340 -238 647 -227 l162 6 6 -37 c57
-348 179 -620 390 -867 83 -98 136 -150 204 -206 l44 -35 -65 -37 c-208 -116
-401 -311 -548 -552 -23 -38 -44 -72 -46 -74 -2 -2 -31 15 -63 38 -74 52 -128
71 -198 71 -63 0 -109 -17 -143 -55 -37 -40 -36 -118 3 -169 61 -79 207 -172
362 -231 104 -39 110 -35 199 144 91 183 171 295 311 436 86 87 131 124 209
169 150 88 205 112 228 97 11 -7 59 -32 106 -55 242 -121 506 -186 755 -186
295 0 544 51 790 162 105 47 120 47 230 -6 100 -49 180 -128 232 -230 36 -72
40 -85 43 -176 4 -83 1 -104 -17 -145 -33 -74 -28 -97 27 -146 26 -23 89 -62
140 -87 77 -38 105 -46 167 -50 72 -4 75 -4 104 26 26 25 31 38 31 78 0 107
-55 190 -162 244 l-62 30 3 93 c2 75 -2 103 -20 152 -55 151 -149 267 -288
359 -68 44 -73 50 -57 62 18 13 44 36 136 118 114 102 272 310 344 454 106
211 176 469 176 651 l0 59 123 7 c344 19 596 136 779 361 29 36 66 72 83 80
44 21 123 92 141 126 10 19 17 61 18 107 1 42 11 114 20 161 23 110 18 239
-13 330 -13 36 -63 157 -113 270 -104 235 -138 318 -138 338 0 34 -58 155
-117 245 -76 115 -166 215 -209 233 -62 26 -395 -18 -463 -60 -56 -36 -84
-100 -80 -187 4 -71 4 -71 -27 -84 -100 -42 -102 -199 -4 -247 93 -45 205 -79
297 -89 125 -14 119 -12 143 -51 33 -52 24 -142 -23 -242 -23 -48 -42 -109
-49 -153 -10 -60 -15 -73 -27 -68 -46 18 -123 27 -195 23 -116 -6 -178 -37
-277 -137 l-78 -79 -32 51 c-51 81 -129 188 -175 237 -23 25 -52 57 -65 72
-13 15 -62 59 -109 98 -204 171 -437 293 -705 370 -166 48 -305 141 -403 270
-32 42 -71 126 -87 187 -17 64 -21 258 -5 268 5 3 58 0 119 -7 273 -30 672 43
966 177 263 119 541 353 717 601 60 85 164 283 208 394 68 176 127 430 155
669 29 262 28 744 -2 854 l-8 28 -30 -31z m-20 -375 c-2 -66 -7 -185 -10 -265
-5 -134 -14 -201 -36 -274 -5 -15 -7 -31 -4 -35 8 -14 -14 -143 -40 -236 -9
-33 -18 -73 -21 -90 -2 -16 -9 -34 -14 -39 -6 -6 -10 -21 -10 -34 0 -13 -4
-21 -9 -18 -5 4 -7 -3 -4 -13 8 -30 -97 -278 -128 -301 -3 -3 -12 -22 -18 -43
-7 -20 -17 -35 -22 -32 -5 4 -9 -5 -9 -19 0 -14 -4 -26 -10 -26 -5 0 -10 -5
-10 -11 0 -6 -13 -28 -30 -49 -16 -21 -30 -41 -30 -44 0 -17 -151 -177 -161
-170 -5 3 -6 -2 -3 -10 3 -9 2 -16 -4 -16 -6 0 -12 5 -14 12 -3 7 -7 5 -11 -6
-4 -11 -3 -15 4 -10 51 31 -85 -98 -141 -135 -14 -9 -52 -36 -86 -61 -69 -51
-148 -96 -214 -123 -25 -10 -63 -27 -85 -37 -22 -10 -76 -30 -120 -45 -44 -15
-89 -31 -100 -36 -27 -12 -180 -39 -280 -49 -100 -11 -441 -11 -400 0 17 4 23
8 15 9 -8 1 -26 4 -39 8 -17 4 -22 3 -17 -5 4 -7 1 -12 -8 -12 -10 0 -13 6
-10 15 4 8 12 15 20 15 8 0 14 2 14 4 0 2 3 13 6 23 5 16 4 16 -11 -2 l-17
-20 5 20 c30 109 225 531 274 592 19 24 26 25 548 78 168 18 228 33 130 34
-90 1 -387 -17 -495 -30 -52 -6 -103 -10 -112 -8 -16 4 -16 7 -3 29 8 14 17
32 21 40 23 50 219 302 315 406 31 33 60 67 65 76 8 14 48 17 297 23 158 4
287 11 287 15 0 9 -489 23 -515 14 -11 -3 12 25 50 63 167 164 402 358 511
420 35 21 64 41 64 45 0 4 8 8 18 9 9 0 12 3 5 5 -14 6 -57 -15 -130 -64 -28
-18 -56 -31 -62 -28 -12 8 -136 -63 -272 -154 -48 -33 -91 -60 -93 -60 -9 0
30 174 59 265 3 11 -3 3 -15 -17 -22 -40 -70 -208 -70 -245 0 -13 -13 -30 -32
-44 -30 -20 -166 -127 -178 -139 -45 -45 -192 -171 -196 -168 -10 11 -15 236
-6 296 5 34 6 65 2 67 -14 9 -30 -129 -30 -266 l0 -144 -73 -75 c-68 -69 -120
-129 -260 -297 -29 -34 -53 -60 -55 -59 -10 11 -32 173 -38 284 -4 73 -11 135
-17 139 -15 9 -1 -328 16 -407 l15 -65 -28 -35 c-34 -44 -140 -220 -185 -308
-61 -121 -58 -122 -91 14 -25 104 -29 137 -28 264 2 572 293 1022 829 1286
194 95 369 151 795 254 316 77 552 171 710 283 l25 17 8 -62 c4 -35 5 -117 2
-183z m-805 -458 c-9 -7 -81 -61 -160 -121 -80 -60 -174 -134 -210 -165 -77
-67 -350 -342 -350 -352 0 -4 -10 -15 -22 -23 -12 -9 -19 -16 -15 -16 11 0
-19 -30 -30 -30 -12 -1 -63 -71 -63 -87 0 -7 -4 -13 -10 -13 -5 0 -10 -5 -10
-11 0 -16 -36 -59 -44 -52 -3 3 -6 -1 -6 -9 0 -9 -7 -18 -15 -22 -9 -3 -24
-26 -35 -50 -10 -24 -42 -80 -71 -123 -69 -104 -216 -394 -269 -529 -48 -126
-99 -325 -98 -386 0 -23 -5 -44 -11 -46 -17 -6 -13 -26 9 -40 11 -7 20 -21 20
-32 0 -11 9 -46 20 -77 11 -31 17 -68 14 -82 -4 -18 -3 -22 4 -12 6 8 12 9 16
3 3 -6 2 -13 -4 -17 -15 -9 -2 -25 15 -19 9 4 12 0 8 -14 -2 -11 0 -23 6 -26
7 -5 8 -1 4 11 -3 10 11 -6 31 -35 20 -29 34 -57 31 -62 -3 -6 -1 -10 4 -10 6
0 11 4 11 8 0 4 23 -14 52 -41 28 -26 71 -60 95 -74 54 -32 49 -43 -7 -14 -22
11 -40 17 -40 13 0 -15 90 -52 125 -52 13 0 26 -4 29 -9 3 -5 -16 -6 -42 -3
-26 2 -45 2 -42 -1 3 -3 46 -9 94 -12 160 -10 398 -98 590 -218 66 -41 185
-133 255 -197 82 -75 227 -250 286 -345 17 -27 40 -65 52 -83 17 -28 19 -40
11 -69 -13 -47 4 -66 32 -35 11 12 20 23 19 24 -5 8 18 59 44 98 114 166 267
242 424 210 68 -14 123 -45 123 -68 1 -31 74 -126 134 -174 61 -48 194 -106
216 -93 13 8 -8 25 -79 62 -82 44 -191 175 -221 267 -18 56 -5 127 43 231 39
85 41 95 41 185 1 67 5 99 15 110 11 11 11 15 1 18 -7 3 -16 -1 -20 -8 -5 -9
-9 -8 -13 3 -8 22 22 30 48 13 19 -12 31 -12 91 0 69 15 119 48 146 97 15 28
2 32 -23 8 -13 -12 -29 -19 -37 -16 -20 7 -37 -6 -21 -16 10 -6 9 -8 -6 -9
-87 -4 -156 7 -134 21 9 6 0 9 -26 10 -35 1 -37 2 -15 9 l25 8 -26 1 c-35 1
-58 43 -38 68 9 11 10 14 2 9 -18 -10 -16 5 3 32 9 13 22 21 30 18 8 -3 14 0
14 7 0 13 47 53 98 82 40 24 41 35 1 35 -31 0 -58 22 -59 48 0 9 5 10 18 3 15
-8 18 -5 20 15 1 15 -2 22 -8 19 -6 -3 -10 3 -10 14 0 27 -8 26 -31 -3 -11
-14 -28 -28 -39 -31 -11 -4 -20 -13 -20 -21 0 -8 -6 -15 -12 -15 -7 -1 -24 -3
-38 -4 -14 -2 -31 2 -38 8 -10 8 -16 8 -21 -1 -4 -6 -13 8 -22 33 -15 41 -15
47 1 82 9 21 40 59 68 86 83 76 118 65 224 -71 76 -97 140 -221 187 -360 28
-84 91 -238 196 -481 20 -47 33 -91 31 -98 -3 -8 -1 -11 4 -8 6 3 10 0 11 -7
0 -7 2 -21 4 -30 2 -10 -2 -18 -9 -18 -8 0 -21 34 -33 83 -20 80 -154 379
-161 358 -5 -15 51 -173 102 -289 31 -67 47 -120 51 -163 8 -82 24 -125 39
-108 8 8 8 13 -1 16 -16 6 -17 59 -1 69 8 5 9 0 6 -14 -4 -14 -2 -20 4 -16 15
9 5 -93 -10 -108 -8 -8 -14 -5 -21 13 -10 24 -10 24 -12 -6 -1 -24 -3 -26 -6
-7 -6 28 -21 28 -32 0 -6 -16 -10 3 -13 62 -6 82 -23 144 -88 310 -12 30 -26
69 -32 85 -5 17 -14 39 -19 50 -5 11 -13 33 -19 49 -20 53 -20 20 -1 -40 101
-310 130 -407 135 -454 4 -30 12 -67 18 -83 7 -18 7 -31 0 -40 -5 -6 -13 -32
-16 -56 -3 -25 -11 -48 -18 -52 -9 -6 -9 -11 1 -23 20 -23 29 -20 36 14 4 16
16 36 27 44 11 8 24 29 28 48 l8 33 1 -36 c1 -24 -4 -39 -14 -43 -8 -3 -15
-13 -15 -22 0 -16 2 -16 20 1 11 10 20 24 20 32 0 7 5 13 10 13 16 0 12 -26
-6 -41 -12 -10 -15 -23 -10 -59 4 -25 7 -52 6 -60 0 -8 -1 -22 -1 -31 0 -9 -8
-16 -17 -15 -12 1 -18 -8 -19 -29 -2 -27 -2 -28 7 -7 9 22 20 29 20 13 0 -5
-9 -19 -21 -32 -11 -13 -18 -19 -15 -12 4 7 -1 11 -13 10 -11 0 -18 -4 -15 -8
2 -4 0 -10 -6 -14 -6 -4 -8 -10 -5 -15 3 -5 -8 -15 -25 -24 -17 -8 -28 -11
-25 -6 2 4 -6 10 -20 12 -13 3 -23 2 -22 -1 1 -3 -1 -6 -5 -6 -7 0 -48 -50
-48 -59 0 -15 29 -4 43 17 9 12 16 18 16 12 0 -15 -36 -56 -47 -53 -6 2 -10
-1 -10 -7 0 -5 5 -9 11 -7 6 2 5 -4 -3 -13 -11 -14 -14 -14 -25 1 -8 11 -19
14 -33 10 -22 -7 -31 -26 -12 -26 6 0 10 5 10 10 0 6 7 10 16 10 14 0 14 -3 4
-15 -9 -11 -9 -15 -1 -15 7 0 9 -5 5 -12 -6 -9 -9 -9 -12 0 -5 15 -42 -7 -42
-26 0 -7 -4 -11 -9 -8 -13 9 -73 -63 -64 -77 5 -9 3 -9 -8 0 -12 10 -22 8 -48
-8 -27 -16 -32 -17 -28 -5 8 21 1 20 -23 -4 -28 -28 -25 -33 13 -25 18 4 28 4
24 -1 -5 -5 -12 -9 -15 -10 -4 0 -26 -6 -49 -13 -47 -13 -60 -27 -16 -16 43
10 21 -4 -38 -25 -59 -22 -72 -25 -49 -10 8 5 11 12 7 17 -5 4 -16 -2 -25 -15
-23 -30 -106 -40 -97 -12 5 15 2 17 -15 13 -22 -6 -26 7 -8 25 19 19 -6 39
-27 22 -9 -8 -38 -13 -68 -12 -31 0 -46 -2 -38 -7 10 -7 10 -10 1 -16 -7 -4
-15 -3 -19 3 -4 6 -15 11 -26 10 -11 -1 -31 2 -45 6 -23 6 -24 6 -7 -7 16 -14
16 -15 -5 -20 -38 -10 -70 3 -65 25 3 12 -3 28 -14 39 -17 17 -18 21 -5 34 19
20 25 19 19 -3 -2 -10 3 -24 12 -32 15 -12 16 -11 10 13 -6 23 -3 28 21 38 16
6 42 8 57 5 17 -4 26 -2 22 4 -3 6 -16 10 -28 10 -22 1 -22 1 -3 15 19 14 18
15 -12 15 -18 0 -32 5 -32 11 0 7 7 8 18 4 9 -3 47 -9 84 -12 59 -5 71 -3 110
20 65 38 148 117 196 186 36 51 40 61 24 61 -10 0 -37 -20 -59 -45 -30 -33
-46 -44 -59 -39 -14 4 -15 3 -6 -3 10 -8 10 -12 -2 -22 -8 -7 -20 -10 -25 -6
-7 4 -8 -1 -4 -11 5 -13 3 -16 -10 -11 -10 4 -14 1 -12 -6 6 -19 -90 -77 -127
-77 -46 1 -145 24 -193 46 -22 9 -46 19 -54 20 -7 1 -19 8 -25 14 -8 9 -3 10
19 5 21 -4 25 -3 15 3 -18 11 -85 10 -97 -2 -4 -4 5 -18 21 -31 26 -21 28 -26
16 -40 -12 -14 -12 -18 1 -26 8 -5 17 -9 21 -9 3 0 4 -9 1 -20 -7 -27 -43 -47
-53 -30 -15 24 -22 -10 -22 -106 0 -144 12 -244 28 -244 8 0 14 -10 14 -25 0
-13 5 -34 11 -47 7 -16 7 -31 -1 -48 -9 -23 -10 -23 -4 7 3 17 1 34 -4 37 -5
3 -12 -43 -16 -107 -4 -69 -15 -136 -27 -175 -11 -34 -22 -62 -24 -62 -2 0 -2
17 0 38 l5 37 -10 -35 c-5 -19 -7 -43 -3 -54 3 -12 1 -16 -5 -12 -6 4 -19 -5
-28 -20 -15 -22 -15 -27 -3 -34 11 -7 11 -12 1 -22 -9 -9 -12 -9 -12 1 0 7 -8
20 -17 29 -15 16 -16 15 -9 -13 4 -16 12 -33 17 -36 6 -4 3 -20 -7 -42 -10
-20 -21 -34 -26 -31 -4 3 -8 -2 -8 -10 0 -9 -7 -16 -15 -16 -21 0 -44 -40 -43
-77 1 -20 -8 -43 -26 -65 -14 -18 -30 -38 -34 -43 -4 -6 -25 -33 -46 -60 -22
-28 -41 -52 -43 -54 -2 -2 -6 -1 -10 3 -4 4 -1 11 7 16 8 5 11 12 7 17 -12 11
-27 -19 -21 -39 4 -13 0 -18 -15 -18 -14 0 -19 -5 -14 -16 4 -11 1 -15 -13
-12 -13 2 -18 -2 -16 -14 2 -11 -3 -18 -13 -18 -8 0 -15 -6 -16 -12 0 -7 -28
-35 -63 -63 -48 -38 -71 -50 -97 -50 -23 0 -34 -5 -34 -15 -1 -26 -44 -66 -98
-91 -29 -13 -54 -27 -57 -30 -3 -3 -16 -11 -30 -18 -24 -11 -24 -11 -6 3 11 9
15 16 8 16 -6 0 -17 -8 -24 -19 -19 -27 -115 -74 -138 -68 -11 3 -18 2 -15 -2
6 -10 -117 -49 -177 -57 -27 -4 -48 -10 -48 -14 0 -4 -33 -13 -74 -19 -59 -8
-98 -8 -191 5 -65 8 -122 13 -129 10 -6 -2 4 -5 22 -5 17 -1 32 -5 32 -10 0
-14 -198 -20 -302 -9 -54 6 -95 14 -93 18 2 4 -6 5 -19 3 -12 -3 -40 2 -61 11
-20 9 -46 16 -56 16 -21 0 -129 39 -204 74 -27 13 -66 31 -85 40 -19 9 -53 27
-75 41 -22 14 -51 30 -65 37 -191 95 -468 370 -585 580 -131 234 -169 334
-206 543 -18 103 -20 145 -16 290 8 277 54 457 169 675 85 161 163 266 303
405 146 147 291 249 470 334 72 34 141 68 155 74 40 19 131 84 182 130 111 99
176 228 199 395 11 82 11 100 -4 157 -26 98 -22 159 19 282 124 367 423 804
805 1179 147 145 323 292 468 393 133 92 236 161 240 161 4 0 -1 -6 -9 -13z
m-3579 -452 c127 -45 295 -64 654 -75 449 -13 597 -45 824 -179 219 -129 438
-414 462 -600 7 -55 24 -153 43 -244 3 -9 -48 31 -112 90 -65 60 -129 118
-144 130 -22 16 -28 29 -28 61 0 54 -29 191 -47 222 l-14 25 5 -25 c3 -14 8
-56 11 -95 3 -38 8 -82 10 -97 3 -16 0 -28 -5 -28 -5 0 -73 43 -152 96 -78 53
-152 100 -164 104 -16 7 -23 20 -28 60 -7 56 -47 172 -53 154 -2 -5 6 -46 16
-89 11 -44 18 -81 16 -84 -3 -2 -59 22 -125 53 -67 32 -146 68 -177 80 -52 20
-57 25 -75 72 -11 28 -30 63 -44 80 -22 27 -21 24 6 -31 27 -55 36 -85 26 -85
-2 0 -43 11 -91 25 -96 28 -124 28 -48 -1 404 -149 788 -389 1069 -669 72 -71
143 -146 157 -165 23 -32 25 -40 16 -75 -6 -22 -13 -53 -17 -69 l-7 -28 -15
28 c-21 40 -149 208 -209 274 -28 30 -51 60 -51 65 0 6 -14 19 -31 29 -17 10
-43 32 -57 48 -39 44 -243 206 -347 275 -145 98 -311 188 -455 249 -74 31
-137 60 -140 64 -8 12 -171 53 -179 45 -2 -3 10 -8 28 -11 17 -4 34 -11 37
-15 3 -5 13 -9 22 -9 20 0 110 -41 282 -129 129 -66 176 -96 163 -104 -4 -2
-66 -21 -138 -42 -163 -46 -215 -64 -192 -65 24 0 157 29 182 40 11 5 56 17
100 26 44 9 82 17 84 19 4 5 63 -24 71 -34 3 -3 35 -26 73 -51 37 -25 67 -48
67 -52 0 -5 5 -8 10 -8 6 0 48 -30 93 -66 125 -101 134 -114 78 -114 -26 0
-393 -74 -446 -89 -22 -7 -24 -10 -9 -10 27 -1 221 26 280 39 26 6 93 15 151
21 l104 11 42 -39 c23 -21 41 -46 39 -55 -2 -9 2 -19 7 -23 7 -4 8 1 5 12 -12
32 99 -86 177 -190 81 -108 82 -112 24 -135 -113 -44 -332 -73 -495 -66 -110
5 -260 23 -275 34 -5 3 -36 15 -67 24 -32 10 -69 27 -83 38 -14 11 -29 18 -32
14 -4 -3 0 -6 7 -6 7 0 11 -3 7 -6 -3 -3 -18 1 -34 9 -15 8 -55 27 -87 42 -72
33 -248 165 -242 181 2 6 -3 11 -12 10 -9 0 -16 5 -15 12 2 6 -3 12 -11 12
-15 0 -126 115 -126 131 0 6 5 7 11 4 6 -4 5 2 -3 14 -7 11 -20 20 -28 18 -35
-5 -219 319 -274 483 -14 41 -35 100 -46 130 -40 106 -90 320 -76 320 2 0 23
-7 47 -15z m4509 -1620 c0 -2 -22 -26 -50 -54 -39 -39 -53 -62 -66 -108 -19
-70 -40 -78 -84 -31 -33 35 -36 54 -16 101 16 39 51 71 91 85 30 10 125 16
125 7z m-4398 -343 c15 -9 34 -33 43 -54 13 -35 13 -42 0 -75 -16 -37 -47 -73
-63 -73 -4 0 -16 23 -26 51 -21 58 -56 103 -97 124 -52 27 -52 15 0 -31 51
-45 51 -46 51 -105 0 -34 -7 -73 -15 -89 -14 -27 -18 -28 -36 -17 -16 10 -21
9 -29 -2 -7 -12 -11 -12 -24 -2 -10 8 -16 9 -16 3 0 -6 8 -16 18 -21 12 -8 13
-10 3 -11 -28 0 -49 29 -44 64 4 29 -1 37 -38 67 l-42 33 7 -29 c5 -17 9 -46
9 -65 2 -34 1 -35 -31 -33 -41 1 -38 -17 6 -31 17 -6 39 -21 47 -33 9 -12 31
-25 50 -29 20 -3 38 -11 41 -16 4 -6 -2 -7 -16 -3 -15 5 -20 4 -16 -4 4 -6 13
-11 20 -11 7 0 21 -10 32 -22 10 -12 13 -18 7 -14 -9 5 -13 0 -13 -13 0 -23
15 -28 23 -8 4 10 6 10 6 0 1 -7 -8 -22 -19 -33 -11 -11 -20 -23 -20 -27 0
-16 -33 -41 -48 -36 -8 4 -13 2 -9 -3 8 -14 -81 -10 -95 4 -7 7 -17 12 -23 12
-5 0 -3 -5 5 -10 12 -8 12 -10 1 -10 -8 0 -29 11 -48 26 -41 31 -43 16 -3 -30
35 -40 107 -62 173 -53 27 4 36 2 26 -4 -10 -6 -5 -9 18 -9 17 0 33 6 36 13 2
6 2 -9 0 -34 -7 -67 14 -152 51 -206 80 -117 94 -188 53 -275 -13 -29 -36 -66
-51 -83 -23 -26 -26 -28 -27 -10 0 18 -1 17 -10 -3 -5 -13 -7 -27 -4 -32 6 -9
-54 -69 -112 -113 -50 -38 -54 -52 -13 -44 95 20 261 185 287 288 8 28 19 39
68 64 51 26 69 30 139 29 92 0 133 -15 208 -72 86 -65 86 -59 29 -240 -27 -86
-57 -193 -65 -236 -17 -86 -28 -106 -57 -106 -10 0 -21 -5 -25 -11 -4 -7 -28
-10 -63 -7 -65 5 -147 48 -248 129 -35 28 -63 45 -63 37 0 -27 121 -148 184
-183 65 -36 100 -42 169 -26 35 8 39 7 49 -15 6 -13 15 -24 20 -24 4 0 7 -26
7 -57 -1 -32 -3 -50 -6 -41 -3 12 -12 16 -33 13 -16 -2 -59 3 -97 11 -44 9
-71 10 -77 4 -6 -6 -24 -10 -42 -10 -45 0 -70 -10 -52 -21 7 -5 24 -9 38 -10
14 -1 -6 -6 -45 -10 -38 -5 -86 -7 -105 -4 -49 8 -111 36 -103 47 3 6 -4 7
-18 3 -16 -4 -19 -3 -11 3 11 7 11 11 0 19 -26 21 -73 40 -88 36 -11 -3 -12
-2 -2 5 7 5 10 16 6 26 -8 20 -44 42 -44 26 0 -5 5 -10 10 -10 6 0 9 -10 9
-22 -1 -17 -2 -19 -6 -5 -2 9 -14 17 -25 17 -13 0 -18 5 -15 14 4 9 1 13 -7
10 -7 -3 -20 3 -28 13 -18 20 -18 18 -18 72 0 25 -5 41 -15 45 -22 8 -45 -4
-38 -20 3 -9 12 -13 19 -10 9 3 11 0 7 -11 -5 -13 -10 -11 -30 13 -12 16 -23
23 -23 17 0 -7 -8 -13 -17 -13 -14 0 -15 2 -5 9 10 6 4 10 -20 15 -19 3 -49
20 -68 36 -19 16 -27 27 -17 24 20 -7 21 -1 6 27 -5 11 -14 17 -20 14 -6 -4
-7 10 -3 37 8 51 14 62 14 24 0 -15 4 -25 9 -22 22 14 -17 96 -46 96 -7 0 -13
3 -13 8 0 4 -3 18 -5 32 -5 22 -4 22 4 5 8 -15 9 -8 8 30 -1 28 -6 53 -11 56
-4 4 -4 15 2 25 11 23 4 96 -9 88 -5 -3 -9 8 -9 25 0 16 -3 38 -6 48 -5 15 -4
15 5 3 8 -11 10 0 9 45 -1 44 7 82 30 145 17 47 47 130 66 185 20 55 41 108
47 119 6 10 14 71 19 135 11 154 44 244 133 369 45 62 71 75 121 61 20 -6 42
-7 49 -2 41 25 143 23 189 -5z m4118 3 c14 -8 19 -14 13 -15 -7 0 -13 -6 -13
-14 0 -8 -7 -16 -15 -20 -8 -3 -15 -11 -15 -18 0 -9 3 -9 12 0 16 16 25 15 32
-4 9 -24 -23 -49 -65 -49 -20 0 -35 -3 -33 -7 3 -4 -7 -10 -22 -14 -69 -17
-108 119 -42 146 35 14 120 11 148 -5z m-3812 -247 c17 -17 15 -70 -3 -94 -8
-10 -15 -15 -15 -10 0 5 -6 3 -14 -3 -10 -8 -16 -9 -21 -1 -3 5 -14 10 -23 10
-9 0 -31 14 -49 30 -18 17 -37 30 -42 30 -21 0 -11 19 17 34 33 18 133 21 150
4z m627 -3038 c7 0 16 6 19 13 3 6 3 -1 1 -18 -3 -17 -16 -38 -30 -48 -14 -10
-25 -23 -25 -29 0 -6 9 -3 20 7 11 10 23 15 27 12 3 -4 -44 -55 -106 -114 -96
-91 -221 -230 -221 -247 0 -2 -17 -31 -39 -63 -21 -32 -64 -108 -95 -168 -83
-161 -71 -152 -153 -121 -93 36 -208 105 -265 159 -77 74 -76 146 2 167 79 21
155 -10 259 -105 l59 -55 37 72 c61 117 166 266 256 362 91 97 151 141 188
138 24 -2 24 -2 5 13 -19 15 -19 15 1 8 11 -3 25 -10 30 -14 6 -4 19 -1 29 7
19 14 19 14 -2 14 -15 0 -22 6 -21 18 0 10 3 12 6 5 2 -7 11 -13 18 -13z
m2495 -147 c0 -10 6 -12 20 -8 13 4 20 2 20 -7 0 -10 3 -9 10 2 13 21 43 -9
79 -82 41 -81 55 -156 48 -260 l-6 -88 27 -6 c61 -15 143 -65 173 -106 25 -35
29 -50 27 -87 l-3 -46 -45 2 c-31 0 -35 -1 -12 -4 30 -4 47 -23 20 -23 -24 0
-143 33 -156 43 -7 5 -34 22 -61 36 -26 14 -60 36 -76 49 l-28 22 22 65 c35
107 24 266 -24 353 -13 23 -20 40 -14 37 11 -8 11 -3 -1 29 -17 45 -61 107
-71 100 -6 -3 -3 -11 8 -19 10 -7 14 -17 10 -21 -4 -4 -22 7 -40 25 -25 26
-28 32 -12 27 11 -3 27 -1 35 4 17 10 50 -14 50 -37z"/>
<path d="M6920 4674 c-56 -17 -99 -49 -85 -62 6 -6 53 -12 105 -14 102 -4 172
-28 244 -83 44 -34 53 -19 26 42 -50 113 -161 158 -290 117z"/>
<path d="M5510 4560 c-77 -15 -131 -62 -165 -144 -18 -42 -13 -57 13 -38 91
66 164 93 267 99 104 6 111 8 94 29 -32 39 -143 67 -209 54z"/>
<path d="M6914 4276 c-91 -29 -178 -110 -223 -206 -23 -49 -26 -68 -26 -165 0
-101 2 -114 28 -163 16 -30 30 -52 32 -50 3 2 -5 29 -17 59 -16 41 -22 75 -22
139 1 73 5 94 31 150 33 72 85 125 162 162 37 19 63 23 136 23 77 0 98 -4 147
-27 68 -32 137 -99 168 -165 32 -66 38 -172 15 -264 -17 -74 -15 -90 9 -70 31
26 51 112 51 216 -1 86 -4 108 -27 157 -33 72 -102 146 -170 183 -46 25 -64
29 -153 32 -65 2 -114 -2 -141 -11z"/>
<path d="M5487 4219 c-94 -22 -203 -112 -244 -200 -33 -70 -47 -165 -34 -233
13 -72 59 -176 77 -176 18 0 18 -1 -7 76 -17 53 -21 83 -17 153 3 76 8 95 37
145 64 115 147 166 278 174 63 3 93 0 134 -14 90 -33 175 -131 193 -224 7 -32
5 -30 -20 17 -33 65 -59 92 -121 123 -61 32 -158 34 -221 6 -45 -20 -55 -36
-22 -36 29 0 76 -26 84 -45 26 -68 -15 -135 -82 -135 -43 0 -63 16 -86 70
l-15 35 -16 -40 c-22 -51 -16 -145 13 -200 11 -22 40 -60 63 -84 l44 -43 100
5 c115 7 201 28 221 54 7 10 21 34 29 53 44 95 53 103 29 25 -16 -56 -13 -86
6 -40 32 83 39 202 14 286 -51 174 -256 291 -437 248z"/>
<path d="M6904 4130 c-54 -24 -64 -40 -25 -40 45 0 83 -37 83 -83 0 -51 -24
-85 -66 -92 -51 -10 -87 12 -107 64 l-16 44 -16 -42 c-36 -88 -12 -202 56
-275 42 -46 43 -46 123 -52 90 -7 229 18 251 46 7 8 26 42 43 74 90 178 -29
377 -225 375 -36 0 -77 -8 -101 -19z"/>
<path d="M7966 3835 c-9 -14 -14 -25 -11 -25 3 0 1 -9 -5 -20 -6 -11 -16 -17
-22 -14 -7 4 -8 2 -4 -5 5 -7 -10 -40 -33 -77 -23 -36 -41 -71 -41 -79 0 -18
17 -28 25 -15 3 5 17 10 31 10 13 0 24 4 24 8 0 5 16 26 35 48 19 21 35 43 35
47 0 5 7 15 15 23 22 22 18 40 -4 20 -18 -16 -18 -16 -18 8 0 15 4 23 10 19 6
-4 8 0 4 11 -4 10 -7 29 -7 42 0 31 -13 31 -34 -1z"/>
<path d="M6667 3473 c-108 -55 -239 -84 -403 -90 -171 -7 -273 10 -383 64 -56
27 -78 33 -90 25 -19 -12 -19 -14 12 -122 65 -228 169 -375 314 -445 49 -24
74 -29 158 -33 85 -3 109 -1 157 18 185 69 310 254 354 520 8 47 14 88 14 93
0 17 -70 1 -133 -30z"/>
<path d="M3709 4488 c-7 -24 -16 -47 -19 -53 -4 -5 -21 -55 -39 -111 -26 -82
-32 -119 -34 -202 -1 -56 1 -102 4 -102 3 0 11 -24 18 -52 8 -29 24 -76 37
-104 13 -28 24 -58 24 -67 0 -18 15 -23 25 -8 5 10 -15 81 -40 136 -55 125
-57 213 -9 377 50 169 64 228 53 228 -4 0 -14 -19 -20 -42z"/>
<path d="M8956 7255 c146 -191 291 -468 354 -677 18 -57 34 -109 36 -117 2 -8
7 -11 10 -8 8 8 -42 204 -83 321 -71 206 -180 382 -295 477 l-53 44 31 -40z"/>
<path d="M8797 7050 c4 -8 29 -47 55 -87 58 -86 153 -276 197 -393 18 -47 41
-106 51 -132 10 -26 39 -128 64 -225 39 -156 52 -225 70 -373 3 -19 2 28 0
105 -10 328 -113 655 -292 925 -58 88 -171 228 -145 180z"/>
<path d="M3648 6713 c-80 -83 -142 -173 -194 -278 -71 -144 -100 -233 -125
-380 -11 -66 -22 -131 -25 -145 -3 -17 1 -14 10 10 8 19 15 44 15 55 2 30 53
186 101 305 61 150 110 241 210 390 63 94 64 101 8 43z"/>
<path d="M3784 6459 c-97 -133 -160 -243 -213 -375 -83 -207 -121 -408 -126
-669 -3 -151 -3 -159 5 -75 26 273 93 554 185 775 45 108 149 318 177 358 11
15 18 30 15 33 -2 3 -22 -19 -43 -47z"/>
</g>
</svg>
